<mxfile host="Electron" modified="2024-04-18T03:06:39.531Z" agent="Mozilla/5.0 (Macintosh; Intel Mac OS X 10_15_7) AppleWebKit/537.36 (KHTML, like Gecko) draw.io/21.6.5 Chrome/114.0.5735.243 Electron/25.3.1 Safari/537.36" etag="exiTtNS3I3bpGqF7KGBy" version="21.6.5" type="device" pages="6">
  <diagram id="qP2TZVc7RIBKxnecBYps" name="State Machine">
    <mxGraphModel dx="2324" dy="1214" grid="1" gridSize="10" guides="1" tooltips="1" connect="1" arrows="1" fold="1" page="1" pageScale="1" pageWidth="850" pageHeight="1100" math="0" shadow="0">
      <root>
        <mxCell id="0" />
        <mxCell id="1" parent="0" />
        <mxCell id="LxyOM-RP_s87WLb5cY0l-1" value="" style="ellipse;fillColor=strokeColor;" parent="1" vertex="1">
          <mxGeometry x="315" y="20" width="14" height="14" as="geometry" />
        </mxCell>
        <mxCell id="LxyOM-RP_s87WLb5cY0l-2" value="Off" style="rounded=1;absoluteArcSize=1;arcSize=14;whiteSpace=wrap;strokeWidth=2;" parent="1" vertex="1">
          <mxGeometry x="303" y="84" width="38" height="34" as="geometry" />
        </mxCell>
        <mxCell id="LxyOM-RP_s87WLb5cY0l-3" value="On" style="rounded=1;absoluteArcSize=1;arcSize=14;whiteSpace=wrap;strokeWidth=2;" parent="1" vertex="1">
          <mxGeometry x="150" y="187" width="35" height="34" as="geometry" />
        </mxCell>
        <mxCell id="LxyOM-RP_s87WLb5cY0l-4" value="Running_a_session" style="swimlane;fontStyle=1;align=center;verticalAlign=middle;startSize=25;container=0;collapsible=0;rounded=1;arcSize=14;dropTarget=0;" parent="1" vertex="1">
          <mxGeometry x="136" y="290" width="358" height="426" as="geometry" />
        </mxCell>
        <mxCell id="LxyOM-RP_s87WLb5cY0l-5" value="" style="ellipse;fillColor=strokeColor;" parent="LxyOM-RP_s87WLb5cY0l-4" vertex="1">
          <mxGeometry x="174" y="33" width="14" height="14" as="geometry" />
        </mxCell>
        <mxCell id="LxyOM-RP_s87WLb5cY0l-6" value="Active" style="rounded=1;absoluteArcSize=1;arcSize=14;whiteSpace=wrap;strokeWidth=2;" parent="LxyOM-RP_s87WLb5cY0l-4" vertex="1">
          <mxGeometry x="151" y="97" width="60" height="34" as="geometry" />
        </mxCell>
        <mxCell id="LxyOM-RP_s87WLb5cY0l-7" value="Site_Processing" style="rounded=1;absoluteArcSize=1;arcSize=14;whiteSpace=wrap;strokeWidth=2;" parent="LxyOM-RP_s87WLb5cY0l-4" vertex="1">
          <mxGeometry x="119" y="200" width="125" height="34" as="geometry" />
        </mxCell>
        <mxCell id="LxyOM-RP_s87WLb5cY0l-8" value="Complete" style="rounded=1;absoluteArcSize=1;arcSize=14;whiteSpace=wrap;strokeWidth=2;" parent="LxyOM-RP_s87WLb5cY0l-4" vertex="1">
          <mxGeometry x="139" y="303" width="84" height="34" as="geometry" />
        </mxCell>
        <mxCell id="LxyOM-RP_s87WLb5cY0l-9" value="" style="ellipse;shape=endState;fillColor=strokeColor;" parent="LxyOM-RP_s87WLb5cY0l-4" vertex="1">
          <mxGeometry x="174" y="387" width="14" height="14" as="geometry" />
        </mxCell>
        <mxCell id="LxyOM-RP_s87WLb5cY0l-10" value="" style="curved=1;startArrow=none;;exitX=0.5145089285714286;exitY=1;entryX=0.5033854166666667;entryY=0;rounded=0;" parent="LxyOM-RP_s87WLb5cY0l-4" source="LxyOM-RP_s87WLb5cY0l-5" target="LxyOM-RP_s87WLb5cY0l-6" edge="1">
          <mxGeometry relative="1" as="geometry">
            <Array as="points" />
          </mxGeometry>
        </mxCell>
        <mxCell id="LxyOM-RP_s87WLb5cY0l-11" value="siteProcessing()" style="curved=1;startArrow=none;;exitX=0.12173215008090589;exitY=1;entryX=0.31443143203883483;entryY=0;rounded=0;" parent="LxyOM-RP_s87WLb5cY0l-4" source="LxyOM-RP_s87WLb5cY0l-6" target="LxyOM-RP_s87WLb5cY0l-7" edge="1">
          <mxGeometry relative="1" as="geometry">
            <Array as="points">
              <mxPoint x="112" y="166" />
            </Array>
          </mxGeometry>
        </mxCell>
        <mxCell id="LxyOM-RP_s87WLb5cY0l-12" value="processNextSite()" style="curved=1;startArrow=none;;exitX=0.6808185679611651;exitY=0;entryX=0.8850386832524274;entryY=1;rounded=0;" parent="LxyOM-RP_s87WLb5cY0l-4" source="LxyOM-RP_s87WLb5cY0l-7" target="LxyOM-RP_s87WLb5cY0l-6" edge="1">
          <mxGeometry relative="1" as="geometry">
            <Array as="points">
              <mxPoint x="251" y="166" />
            </Array>
          </mxGeometry>
        </mxCell>
        <mxCell id="LxyOM-RP_s87WLb5cY0l-13" value="currentSiteIndex == NUM_SITES" style="curved=1;startArrow=none;;exitX=0.497625;exitY=1;entryX=0.5024181547619048;entryY=0;rounded=0;" parent="LxyOM-RP_s87WLb5cY0l-4" source="LxyOM-RP_s87WLb5cY0l-7" target="LxyOM-RP_s87WLb5cY0l-8" edge="1">
          <mxGeometry relative="1" as="geometry">
            <Array as="points" />
          </mxGeometry>
        </mxCell>
        <mxCell id="LxyOM-RP_s87WLb5cY0l-14" value="" style="curved=1;startArrow=none;;exitX=0.5024181547619048;exitY=1;entryX=0.5145089285714286;entryY=0;rounded=0;" parent="LxyOM-RP_s87WLb5cY0l-4" source="LxyOM-RP_s87WLb5cY0l-8" target="LxyOM-RP_s87WLb5cY0l-9" edge="1">
          <mxGeometry relative="1" as="geometry">
            <Array as="points" />
          </mxGeometry>
        </mxCell>
        <mxCell id="LxyOM-RP_s87WLb5cY0l-15" value="Paused" style="swimlane;fontStyle=1;align=center;verticalAlign=middle;startSize=25;container=0;collapsible=0;rounded=1;arcSize=14;dropTarget=0;" parent="1" vertex="1">
          <mxGeometry x="219" y="785" width="192" height="239" as="geometry" />
        </mxCell>
        <mxCell id="LxyOM-RP_s87WLb5cY0l-16" value="" style="ellipse;fillColor=strokeColor;" parent="LxyOM-RP_s87WLb5cY0l-15" vertex="1">
          <mxGeometry x="93" y="33" width="14" height="14" as="geometry" />
        </mxCell>
        <mxCell id="LxyOM-RP_s87WLb5cY0l-17" value="Timer_Set" style="rounded=1;absoluteArcSize=1;arcSize=14;whiteSpace=wrap;strokeWidth=2;" parent="LxyOM-RP_s87WLb5cY0l-15" vertex="1">
          <mxGeometry x="56" y="97" width="88" height="34" as="geometry" />
        </mxCell>
        <mxCell id="LxyOM-RP_s87WLb5cY0l-18" value="" style="ellipse;shape=endState;fillColor=strokeColor;" parent="LxyOM-RP_s87WLb5cY0l-15" vertex="1">
          <mxGeometry x="93" y="200" width="14" height="14" as="geometry" />
        </mxCell>
        <mxCell id="LxyOM-RP_s87WLb5cY0l-19" value="" style="curved=1;startArrow=none;;exitX=0.5033482142857143;exitY=1;entryX=0.5005326704545454;entryY=0;rounded=0;" parent="LxyOM-RP_s87WLb5cY0l-15" source="LxyOM-RP_s87WLb5cY0l-16" target="LxyOM-RP_s87WLb5cY0l-17" edge="1">
          <mxGeometry relative="1" as="geometry">
            <Array as="points" />
          </mxGeometry>
        </mxCell>
        <mxCell id="LxyOM-RP_s87WLb5cY0l-20" value="pauseTimer timeout" style="curved=1;startArrow=none;;exitX=0.5005326704545454;exitY=1;entryX=0.5033482142857143;entryY=0;rounded=0;" parent="LxyOM-RP_s87WLb5cY0l-15" source="LxyOM-RP_s87WLb5cY0l-17" target="LxyOM-RP_s87WLb5cY0l-18" edge="1">
          <mxGeometry relative="1" as="geometry">
            <Array as="points" />
          </mxGeometry>
        </mxCell>
        <mxCell id="LxyOM-RP_s87WLb5cY0l-21" value="" style="curved=1;startArrow=none;;exitX=0.4732142857142857;exitY=1;entryX=0.4901315789473684;entryY=0;rounded=0;" parent="1" source="LxyOM-RP_s87WLb5cY0l-1" target="LxyOM-RP_s87WLb5cY0l-2" edge="1">
          <mxGeometry relative="1" as="geometry">
            <Array as="points" />
          </mxGeometry>
        </mxCell>
        <mxCell id="LxyOM-RP_s87WLb5cY0l-22" value="newSession()" style="curved=1;startArrow=none;;exitX=-0.005756578947368421;exitY=0.6155832385787368;entryX=0.011607142857142858;entryY=0.21876837771990285;rounded=0;" parent="1" source="LxyOM-RP_s87WLb5cY0l-2" target="LxyOM-RP_s87WLb5cY0l-3" edge="1">
          <mxGeometry relative="1" as="geometry">
            <Array as="points">
              <mxPoint x="75" y="153" />
            </Array>
          </mxGeometry>
        </mxCell>
        <mxCell id="LxyOM-RP_s87WLb5cY0l-23" value="stopSession() / no session to save" style="curved=1;startArrow=none;;exitX=0.9982142857142857;exitY=0.33012787983355285;entryX=0.4901315789473684;entryY=1;rounded=0;" parent="1" source="LxyOM-RP_s87WLb5cY0l-3" target="LxyOM-RP_s87WLb5cY0l-2" edge="1">
          <mxGeometry relative="1" as="geometry">
            <Array as="points">
              <mxPoint x="322" y="153" />
            </Array>
          </mxGeometry>
        </mxCell>
        <mxCell id="LxyOM-RP_s87WLb5cY0l-24" value="newSession() / initialize &amp; start session" style="curved=1;startArrow=none;;exitX=0.011607142857142858;exitY=0.6775767863773806;entryX=0.000005455656424581006;entryY=0.14703895952768223;rounded=0;" parent="1" source="LxyOM-RP_s87WLb5cY0l-3" target="LxyOM-RP_s87WLb5cY0l-4" edge="1">
          <mxGeometry relative="1" as="geometry">
            <Array as="points">
              <mxPoint x="20" y="256" />
            </Array>
          </mxGeometry>
        </mxCell>
        <mxCell id="LxyOM-RP_s87WLb5cY0l-25" value="finishSession() / finish &amp; save session" style="curved=1;startArrow=none;;exitX=0.49984724162011174;exitY=0;entryX=0.9982142857142857;entryY=0.6775767863773806;rounded=0;" parent="1" source="LxyOM-RP_s87WLb5cY0l-4" target="LxyOM-RP_s87WLb5cY0l-3" edge="1">
          <mxGeometry relative="1" as="geometry">
            <Array as="points">
              <mxPoint x="315" y="256" />
            </Array>
          </mxGeometry>
        </mxCell>
        <mxCell id="LxyOM-RP_s87WLb5cY0l-26" value="pauseSession() / pause current session" style="curved=1;startArrow=none;;exitX=0.0382649822244794;exitY=1;entryX=-0.0005289713541666666;entryY=0.1776866278602099;rounded=0;" parent="1" source="LxyOM-RP_s87WLb5cY0l-4" target="LxyOM-RP_s87WLb5cY0l-15" edge="1">
          <mxGeometry relative="1" as="geometry">
            <Array as="points">
              <mxPoint x="123" y="751" />
            </Array>
          </mxGeometry>
        </mxCell>
        <mxCell id="LxyOM-RP_s87WLb5cY0l-27" value="unpauseSession() / resume session" style="curved=1;startArrow=none;;exitX=0.8614480154854913;exitY=0;entryX=0.7150081471135938;entryY=1;rounded=0;" parent="1" source="LxyOM-RP_s87WLb5cY0l-15" target="LxyOM-RP_s87WLb5cY0l-4" edge="1">
          <mxGeometry relative="1" as="geometry">
            <Array as="points">
              <mxPoint x="404" y="751" />
            </Array>
          </mxGeometry>
        </mxCell>
        <mxCell id="LxyOM-RP_s87WLb5cY0l-28" value="stopSession() / stop &amp; clear session" style="curved=1;startArrow=none;;exitX=0.8990870206957847;exitY=0;entryX=0.9860197368421053;entryY=0.6790653623602066;rounded=0;" parent="1" source="LxyOM-RP_s87WLb5cY0l-4" target="LxyOM-RP_s87WLb5cY0l-2" edge="1">
          <mxGeometry relative="1" as="geometry">
            <Array as="points">
              <mxPoint x="481" y="256" />
              <mxPoint x="481" y="153" />
            </Array>
          </mxGeometry>
        </mxCell>
        <mxCell id="LxyOM-RP_s87WLb5cY0l-29" value="" style="ellipse;fillColor=strokeColor;" parent="1" vertex="1">
          <mxGeometry x="315" y="20" width="14" height="14" as="geometry" />
        </mxCell>
        <mxCell id="LxyOM-RP_s87WLb5cY0l-30" value="Off" style="rounded=1;absoluteArcSize=1;arcSize=14;whiteSpace=wrap;strokeWidth=2;" parent="1" vertex="1">
          <mxGeometry x="303" y="84" width="38" height="34" as="geometry" />
        </mxCell>
        <mxCell id="LxyOM-RP_s87WLb5cY0l-31" value="On" style="rounded=1;absoluteArcSize=1;arcSize=14;whiteSpace=wrap;strokeWidth=2;" parent="1" vertex="1">
          <mxGeometry x="150" y="187" width="35" height="34" as="geometry" />
        </mxCell>
        <mxCell id="LxyOM-RP_s87WLb5cY0l-32" value="Running_a_session" style="swimlane;fontStyle=1;align=center;verticalAlign=middle;startSize=25;container=0;collapsible=0;rounded=1;arcSize=14;dropTarget=0;" parent="1" vertex="1">
          <mxGeometry x="136" y="290" width="358" height="426" as="geometry" />
        </mxCell>
        <mxCell id="LxyOM-RP_s87WLb5cY0l-33" value="" style="ellipse;fillColor=strokeColor;" parent="LxyOM-RP_s87WLb5cY0l-32" vertex="1">
          <mxGeometry x="174" y="33" width="14" height="14" as="geometry" />
        </mxCell>
        <mxCell id="LxyOM-RP_s87WLb5cY0l-34" value="Active" style="rounded=1;absoluteArcSize=1;arcSize=14;whiteSpace=wrap;strokeWidth=2;" parent="LxyOM-RP_s87WLb5cY0l-32" vertex="1">
          <mxGeometry x="151" y="97" width="60" height="34" as="geometry" />
        </mxCell>
        <mxCell id="LxyOM-RP_s87WLb5cY0l-35" value="Site_Processing" style="rounded=1;absoluteArcSize=1;arcSize=14;whiteSpace=wrap;strokeWidth=2;" parent="LxyOM-RP_s87WLb5cY0l-32" vertex="1">
          <mxGeometry x="119" y="200" width="125" height="34" as="geometry" />
        </mxCell>
        <mxCell id="LxyOM-RP_s87WLb5cY0l-36" value="Complete" style="rounded=1;absoluteArcSize=1;arcSize=14;whiteSpace=wrap;strokeWidth=2;" parent="LxyOM-RP_s87WLb5cY0l-32" vertex="1">
          <mxGeometry x="139" y="303" width="84" height="34" as="geometry" />
        </mxCell>
        <mxCell id="LxyOM-RP_s87WLb5cY0l-37" value="" style="ellipse;shape=endState;fillColor=strokeColor;" parent="LxyOM-RP_s87WLb5cY0l-32" vertex="1">
          <mxGeometry x="174" y="387" width="14" height="14" as="geometry" />
        </mxCell>
        <mxCell id="LxyOM-RP_s87WLb5cY0l-38" value="" style="curved=1;startArrow=none;;exitX=0.5145089285714286;exitY=1;entryX=0.5033854166666667;entryY=0;rounded=0;" parent="LxyOM-RP_s87WLb5cY0l-32" source="LxyOM-RP_s87WLb5cY0l-33" target="LxyOM-RP_s87WLb5cY0l-34" edge="1">
          <mxGeometry relative="1" as="geometry">
            <Array as="points" />
          </mxGeometry>
        </mxCell>
        <mxCell id="LxyOM-RP_s87WLb5cY0l-39" value="siteProcessing()" style="curved=1;startArrow=none;;exitX=0.12173215008090589;exitY=1;entryX=0.31443143203883483;entryY=0;rounded=0;" parent="LxyOM-RP_s87WLb5cY0l-32" source="LxyOM-RP_s87WLb5cY0l-34" target="LxyOM-RP_s87WLb5cY0l-35" edge="1">
          <mxGeometry relative="1" as="geometry">
            <Array as="points">
              <mxPoint x="112" y="166" />
            </Array>
          </mxGeometry>
        </mxCell>
        <mxCell id="LxyOM-RP_s87WLb5cY0l-40" value="processNextSite()" style="curved=1;startArrow=none;;exitX=0.6808185679611651;exitY=0;entryX=0.8850386832524274;entryY=1;rounded=0;" parent="LxyOM-RP_s87WLb5cY0l-32" source="LxyOM-RP_s87WLb5cY0l-35" target="LxyOM-RP_s87WLb5cY0l-34" edge="1">
          <mxGeometry relative="1" as="geometry">
            <Array as="points">
              <mxPoint x="251" y="166" />
            </Array>
          </mxGeometry>
        </mxCell>
        <mxCell id="LxyOM-RP_s87WLb5cY0l-41" value="currentSiteIndex == NUM_SITES" style="curved=1;startArrow=none;;exitX=0.497625;exitY=1;entryX=0.5024181547619048;entryY=0;rounded=0;" parent="LxyOM-RP_s87WLb5cY0l-32" source="LxyOM-RP_s87WLb5cY0l-35" target="LxyOM-RP_s87WLb5cY0l-36" edge="1">
          <mxGeometry relative="1" as="geometry">
            <Array as="points" />
          </mxGeometry>
        </mxCell>
        <mxCell id="LxyOM-RP_s87WLb5cY0l-42" value="" style="curved=1;startArrow=none;;exitX=0.5024181547619048;exitY=1;entryX=0.5145089285714286;entryY=0;rounded=0;" parent="LxyOM-RP_s87WLb5cY0l-32" source="LxyOM-RP_s87WLb5cY0l-36" target="LxyOM-RP_s87WLb5cY0l-37" edge="1">
          <mxGeometry relative="1" as="geometry">
            <Array as="points" />
          </mxGeometry>
        </mxCell>
        <mxCell id="LxyOM-RP_s87WLb5cY0l-43" value="Paused" style="swimlane;fontStyle=1;align=center;verticalAlign=middle;startSize=25;container=0;collapsible=0;rounded=1;arcSize=14;dropTarget=0;" parent="1" vertex="1">
          <mxGeometry x="219" y="785" width="192" height="239" as="geometry" />
        </mxCell>
        <mxCell id="LxyOM-RP_s87WLb5cY0l-44" value="" style="ellipse;fillColor=strokeColor;" parent="LxyOM-RP_s87WLb5cY0l-43" vertex="1">
          <mxGeometry x="93" y="33" width="14" height="14" as="geometry" />
        </mxCell>
        <mxCell id="LxyOM-RP_s87WLb5cY0l-45" value="Timer_Set" style="rounded=1;absoluteArcSize=1;arcSize=14;whiteSpace=wrap;strokeWidth=2;" parent="LxyOM-RP_s87WLb5cY0l-43" vertex="1">
          <mxGeometry x="56" y="97" width="88" height="34" as="geometry" />
        </mxCell>
        <mxCell id="LxyOM-RP_s87WLb5cY0l-46" value="" style="ellipse;shape=endState;fillColor=strokeColor;" parent="LxyOM-RP_s87WLb5cY0l-43" vertex="1">
          <mxGeometry x="93" y="200" width="14" height="14" as="geometry" />
        </mxCell>
        <mxCell id="LxyOM-RP_s87WLb5cY0l-47" value="" style="curved=1;startArrow=none;;exitX=0.5033482142857143;exitY=1;entryX=0.5005326704545454;entryY=0;rounded=0;" parent="LxyOM-RP_s87WLb5cY0l-43" source="LxyOM-RP_s87WLb5cY0l-44" target="LxyOM-RP_s87WLb5cY0l-45" edge="1">
          <mxGeometry relative="1" as="geometry">
            <Array as="points" />
          </mxGeometry>
        </mxCell>
        <mxCell id="LxyOM-RP_s87WLb5cY0l-48" value="pauseTimer timeout" style="curved=1;startArrow=none;;exitX=0.5005326704545454;exitY=1;entryX=0.5033482142857143;entryY=0;rounded=0;" parent="LxyOM-RP_s87WLb5cY0l-43" source="LxyOM-RP_s87WLb5cY0l-45" target="LxyOM-RP_s87WLb5cY0l-46" edge="1">
          <mxGeometry relative="1" as="geometry">
            <Array as="points" />
          </mxGeometry>
        </mxCell>
        <mxCell id="LxyOM-RP_s87WLb5cY0l-49" value="" style="curved=1;startArrow=none;;exitX=0.4732142857142857;exitY=1;entryX=0.4901315789473684;entryY=0;rounded=0;" parent="1" source="LxyOM-RP_s87WLb5cY0l-29" target="LxyOM-RP_s87WLb5cY0l-30" edge="1">
          <mxGeometry relative="1" as="geometry">
            <Array as="points" />
          </mxGeometry>
        </mxCell>
        <mxCell id="LxyOM-RP_s87WLb5cY0l-50" value="newSession()" style="curved=1;startArrow=none;;exitX=-0.005756578947368421;exitY=0.6155832385787368;entryX=0.011607142857142858;entryY=0.21876837771990285;rounded=0;" parent="1" source="LxyOM-RP_s87WLb5cY0l-30" target="LxyOM-RP_s87WLb5cY0l-31" edge="1">
          <mxGeometry relative="1" as="geometry">
            <Array as="points">
              <mxPoint x="75" y="153" />
            </Array>
          </mxGeometry>
        </mxCell>
        <mxCell id="LxyOM-RP_s87WLb5cY0l-51" value="stopSession() / no session to save" style="curved=1;startArrow=none;;exitX=0.9982142857142857;exitY=0.33012787983355285;entryX=0.4901315789473684;entryY=1;rounded=0;" parent="1" source="LxyOM-RP_s87WLb5cY0l-31" target="LxyOM-RP_s87WLb5cY0l-30" edge="1">
          <mxGeometry relative="1" as="geometry">
            <Array as="points">
              <mxPoint x="322" y="153" />
            </Array>
          </mxGeometry>
        </mxCell>
        <mxCell id="LxyOM-RP_s87WLb5cY0l-52" value="newSession() / initialize &amp; start session" style="curved=1;startArrow=none;;exitX=0.011607142857142858;exitY=0.6775767863773806;entryX=0.000005455656424581006;entryY=0.14703895952768223;rounded=0;" parent="1" source="LxyOM-RP_s87WLb5cY0l-31" target="LxyOM-RP_s87WLb5cY0l-32" edge="1">
          <mxGeometry relative="1" as="geometry">
            <Array as="points">
              <mxPoint x="20" y="256" />
            </Array>
          </mxGeometry>
        </mxCell>
        <mxCell id="LxyOM-RP_s87WLb5cY0l-53" value="finishSession() / finish &amp; save session" style="curved=1;startArrow=none;;exitX=0.49984724162011174;exitY=0;entryX=0.9982142857142857;entryY=0.6775767863773806;rounded=0;" parent="1" source="LxyOM-RP_s87WLb5cY0l-32" target="LxyOM-RP_s87WLb5cY0l-31" edge="1">
          <mxGeometry relative="1" as="geometry">
            <Array as="points">
              <mxPoint x="315" y="256" />
            </Array>
          </mxGeometry>
        </mxCell>
        <mxCell id="LxyOM-RP_s87WLb5cY0l-54" value="pauseSession() / pause current session" style="curved=1;startArrow=none;;exitX=0.0382649822244794;exitY=1;entryX=-0.0005289713541666666;entryY=0.1776866278602099;rounded=0;" parent="1" source="LxyOM-RP_s87WLb5cY0l-32" target="LxyOM-RP_s87WLb5cY0l-43" edge="1">
          <mxGeometry relative="1" as="geometry">
            <Array as="points">
              <mxPoint x="123" y="751" />
            </Array>
          </mxGeometry>
        </mxCell>
        <mxCell id="LxyOM-RP_s87WLb5cY0l-55" value="unpauseSession() / resume session" style="curved=1;startArrow=none;;exitX=0.8614480154854913;exitY=0;entryX=0.7150081471135938;entryY=1;rounded=0;" parent="1" source="LxyOM-RP_s87WLb5cY0l-43" target="LxyOM-RP_s87WLb5cY0l-32" edge="1">
          <mxGeometry relative="1" as="geometry">
            <Array as="points">
              <mxPoint x="404" y="751" />
            </Array>
          </mxGeometry>
        </mxCell>
        <mxCell id="LxyOM-RP_s87WLb5cY0l-56" value="stopSession() / stop &amp; clear session" style="curved=1;startArrow=none;;exitX=0.8990870206957847;exitY=0;entryX=0.9860197368421053;entryY=0.6790653623602066;rounded=0;" parent="1" source="LxyOM-RP_s87WLb5cY0l-32" target="LxyOM-RP_s87WLb5cY0l-30" edge="1">
          <mxGeometry relative="1" as="geometry">
            <Array as="points">
              <mxPoint x="481" y="256" />
              <mxPoint x="481" y="153" />
            </Array>
          </mxGeometry>
        </mxCell>
        <mxCell id="LxyOM-RP_s87WLb5cY0l-57" value="" style="ellipse;fillColor=strokeColor;" parent="1" vertex="1">
          <mxGeometry x="315" y="20" width="14" height="14" as="geometry" />
        </mxCell>
        <mxCell id="LxyOM-RP_s87WLb5cY0l-58" value="Off" style="rounded=1;absoluteArcSize=1;arcSize=14;whiteSpace=wrap;strokeWidth=2;" parent="1" vertex="1">
          <mxGeometry x="303" y="84" width="38" height="34" as="geometry" />
        </mxCell>
        <mxCell id="LxyOM-RP_s87WLb5cY0l-59" value="On" style="rounded=1;absoluteArcSize=1;arcSize=14;whiteSpace=wrap;strokeWidth=2;" parent="1" vertex="1">
          <mxGeometry x="150" y="187" width="35" height="34" as="geometry" />
        </mxCell>
        <mxCell id="LxyOM-RP_s87WLb5cY0l-60" value="Session in Progress" style="swimlane;fontStyle=1;align=center;verticalAlign=middle;startSize=25;container=0;collapsible=0;rounded=1;arcSize=14;dropTarget=0;" parent="1" vertex="1">
          <mxGeometry x="136" y="290" width="358" height="426" as="geometry" />
        </mxCell>
        <mxCell id="LxyOM-RP_s87WLb5cY0l-61" value="" style="ellipse;fillColor=strokeColor;" parent="LxyOM-RP_s87WLb5cY0l-60" vertex="1">
          <mxGeometry x="174" y="33" width="14" height="14" as="geometry" />
        </mxCell>
        <mxCell id="LxyOM-RP_s87WLb5cY0l-62" value="Active" style="rounded=1;absoluteArcSize=1;arcSize=14;whiteSpace=wrap;strokeWidth=2;" parent="LxyOM-RP_s87WLb5cY0l-60" vertex="1">
          <mxGeometry x="151" y="97" width="60" height="34" as="geometry" />
        </mxCell>
        <mxCell id="LxyOM-RP_s87WLb5cY0l-63" value="Site_Processing" style="rounded=1;absoluteArcSize=1;arcSize=14;whiteSpace=wrap;strokeWidth=2;" parent="LxyOM-RP_s87WLb5cY0l-60" vertex="1">
          <mxGeometry x="119" y="200" width="125" height="34" as="geometry" />
        </mxCell>
        <mxCell id="LxyOM-RP_s87WLb5cY0l-64" value="Complete" style="rounded=1;absoluteArcSize=1;arcSize=14;whiteSpace=wrap;strokeWidth=2;" parent="LxyOM-RP_s87WLb5cY0l-60" vertex="1">
          <mxGeometry x="139" y="303" width="84" height="34" as="geometry" />
        </mxCell>
        <mxCell id="LxyOM-RP_s87WLb5cY0l-65" value="" style="ellipse;shape=endState;fillColor=strokeColor;" parent="LxyOM-RP_s87WLb5cY0l-60" vertex="1">
          <mxGeometry x="174" y="387" width="14" height="14" as="geometry" />
        </mxCell>
        <mxCell id="LxyOM-RP_s87WLb5cY0l-66" value="" style="curved=1;startArrow=none;;exitX=0.5145089285714286;exitY=1;entryX=0.5033854166666667;entryY=0;rounded=0;" parent="LxyOM-RP_s87WLb5cY0l-60" source="LxyOM-RP_s87WLb5cY0l-61" target="LxyOM-RP_s87WLb5cY0l-62" edge="1">
          <mxGeometry relative="1" as="geometry">
            <Array as="points" />
          </mxGeometry>
        </mxCell>
        <mxCell id="LxyOM-RP_s87WLb5cY0l-67" value="siteProcessing()" style="curved=1;startArrow=none;;exitX=0.12173215008090589;exitY=1;entryX=0.31443143203883483;entryY=0;rounded=0;" parent="LxyOM-RP_s87WLb5cY0l-60" source="LxyOM-RP_s87WLb5cY0l-62" target="LxyOM-RP_s87WLb5cY0l-63" edge="1">
          <mxGeometry relative="1" as="geometry">
            <Array as="points">
              <mxPoint x="112" y="166" />
            </Array>
          </mxGeometry>
        </mxCell>
        <mxCell id="LxyOM-RP_s87WLb5cY0l-68" value="processNextSite()" style="curved=1;startArrow=none;;exitX=0.6808185679611651;exitY=0;entryX=0.8850386832524274;entryY=1;rounded=0;" parent="LxyOM-RP_s87WLb5cY0l-60" source="LxyOM-RP_s87WLb5cY0l-63" target="LxyOM-RP_s87WLb5cY0l-62" edge="1">
          <mxGeometry relative="1" as="geometry">
            <Array as="points">
              <mxPoint x="251" y="166" />
            </Array>
          </mxGeometry>
        </mxCell>
        <mxCell id="LxyOM-RP_s87WLb5cY0l-69" value="currentSiteIndex == NUM_SITES" style="curved=1;startArrow=none;;exitX=0.497625;exitY=1;entryX=0.5024181547619048;entryY=0;rounded=0;" parent="LxyOM-RP_s87WLb5cY0l-60" source="LxyOM-RP_s87WLb5cY0l-63" target="LxyOM-RP_s87WLb5cY0l-64" edge="1">
          <mxGeometry relative="1" as="geometry">
            <Array as="points" />
          </mxGeometry>
        </mxCell>
        <mxCell id="LxyOM-RP_s87WLb5cY0l-70" value="" style="curved=1;startArrow=none;;exitX=0.5024181547619048;exitY=1;entryX=0.5145089285714286;entryY=0;rounded=0;" parent="LxyOM-RP_s87WLb5cY0l-60" source="LxyOM-RP_s87WLb5cY0l-64" target="LxyOM-RP_s87WLb5cY0l-65" edge="1">
          <mxGeometry relative="1" as="geometry">
            <Array as="points" />
          </mxGeometry>
        </mxCell>
        <mxCell id="LxyOM-RP_s87WLb5cY0l-71" value="Paused" style="swimlane;fontStyle=1;align=center;verticalAlign=middle;startSize=25;container=0;collapsible=0;rounded=1;arcSize=14;dropTarget=0;" parent="1" vertex="1">
          <mxGeometry x="219" y="785" width="192" height="239" as="geometry" />
        </mxCell>
        <mxCell id="LxyOM-RP_s87WLb5cY0l-72" value="" style="ellipse;fillColor=strokeColor;" parent="LxyOM-RP_s87WLb5cY0l-71" vertex="1">
          <mxGeometry x="93" y="33" width="14" height="14" as="geometry" />
        </mxCell>
        <mxCell id="LxyOM-RP_s87WLb5cY0l-73" value="Timer_Set" style="rounded=1;absoluteArcSize=1;arcSize=14;whiteSpace=wrap;strokeWidth=2;" parent="LxyOM-RP_s87WLb5cY0l-71" vertex="1">
          <mxGeometry x="56" y="97" width="88" height="34" as="geometry" />
        </mxCell>
        <mxCell id="LxyOM-RP_s87WLb5cY0l-74" value="" style="ellipse;shape=endState;fillColor=strokeColor;" parent="LxyOM-RP_s87WLb5cY0l-71" vertex="1">
          <mxGeometry x="93" y="200" width="14" height="14" as="geometry" />
        </mxCell>
        <mxCell id="LxyOM-RP_s87WLb5cY0l-75" value="" style="curved=1;startArrow=none;;exitX=0.5033482142857143;exitY=1;entryX=0.5005326704545454;entryY=0;rounded=0;" parent="LxyOM-RP_s87WLb5cY0l-71" source="LxyOM-RP_s87WLb5cY0l-72" target="LxyOM-RP_s87WLb5cY0l-73" edge="1">
          <mxGeometry relative="1" as="geometry">
            <Array as="points" />
          </mxGeometry>
        </mxCell>
        <mxCell id="LxyOM-RP_s87WLb5cY0l-76" value="pauseTimer timeout" style="curved=1;startArrow=none;;exitX=0.5005326704545454;exitY=1;entryX=0.5033482142857143;entryY=0;rounded=0;" parent="LxyOM-RP_s87WLb5cY0l-71" source="LxyOM-RP_s87WLb5cY0l-73" target="LxyOM-RP_s87WLb5cY0l-74" edge="1">
          <mxGeometry relative="1" as="geometry">
            <Array as="points" />
          </mxGeometry>
        </mxCell>
        <mxCell id="LxyOM-RP_s87WLb5cY0l-77" value="" style="curved=1;startArrow=none;;exitX=0.4732142857142857;exitY=1;entryX=0.4901315789473684;entryY=0;rounded=0;" parent="1" source="LxyOM-RP_s87WLb5cY0l-57" target="LxyOM-RP_s87WLb5cY0l-58" edge="1">
          <mxGeometry relative="1" as="geometry">
            <Array as="points" />
          </mxGeometry>
        </mxCell>
        <mxCell id="LxyOM-RP_s87WLb5cY0l-78" value="newSession()" style="curved=1;startArrow=none;;exitX=-0.005756578947368421;exitY=0.6155832385787368;entryX=0.011607142857142858;entryY=0.21876837771990285;rounded=0;" parent="1" source="LxyOM-RP_s87WLb5cY0l-58" target="LxyOM-RP_s87WLb5cY0l-59" edge="1">
          <mxGeometry relative="1" as="geometry">
            <Array as="points">
              <mxPoint x="75" y="153" />
            </Array>
          </mxGeometry>
        </mxCell>
        <mxCell id="LxyOM-RP_s87WLb5cY0l-79" value="stopSession() / no session to save" style="curved=1;startArrow=none;;exitX=0.9982142857142857;exitY=0.33012787983355285;entryX=0.4901315789473684;entryY=1;rounded=0;" parent="1" source="LxyOM-RP_s87WLb5cY0l-59" target="LxyOM-RP_s87WLb5cY0l-58" edge="1">
          <mxGeometry relative="1" as="geometry">
            <Array as="points">
              <mxPoint x="322" y="153" />
            </Array>
          </mxGeometry>
        </mxCell>
        <mxCell id="LxyOM-RP_s87WLb5cY0l-80" value="newSession() / initialize &amp; start session" style="curved=1;startArrow=none;;exitX=0.011607142857142858;exitY=0.6775767863773806;entryX=0.000005455656424581006;entryY=0.14703895952768223;rounded=0;" parent="1" source="LxyOM-RP_s87WLb5cY0l-59" target="LxyOM-RP_s87WLb5cY0l-60" edge="1">
          <mxGeometry relative="1" as="geometry">
            <Array as="points">
              <mxPoint x="20" y="256" />
            </Array>
          </mxGeometry>
        </mxCell>
        <mxCell id="LxyOM-RP_s87WLb5cY0l-81" value="finishSession() / finish &amp; save session" style="curved=1;startArrow=none;;exitX=0.49984724162011174;exitY=0;entryX=0.9982142857142857;entryY=0.6775767863773806;rounded=0;" parent="1" source="LxyOM-RP_s87WLb5cY0l-60" target="LxyOM-RP_s87WLb5cY0l-59" edge="1">
          <mxGeometry relative="1" as="geometry">
            <Array as="points">
              <mxPoint x="315" y="256" />
            </Array>
          </mxGeometry>
        </mxCell>
        <mxCell id="LxyOM-RP_s87WLb5cY0l-82" value="pauseSession() / pause current session" style="curved=1;startArrow=none;;exitX=0.0382649822244794;exitY=1;entryX=-0.0005289713541666666;entryY=0.1776866278602099;rounded=0;" parent="1" source="LxyOM-RP_s87WLb5cY0l-60" target="LxyOM-RP_s87WLb5cY0l-71" edge="1">
          <mxGeometry relative="1" as="geometry">
            <Array as="points">
              <mxPoint x="123" y="751" />
            </Array>
          </mxGeometry>
        </mxCell>
        <mxCell id="LxyOM-RP_s87WLb5cY0l-83" value="unpauseSession() / resume session" style="curved=1;startArrow=none;;exitX=0.8614480154854913;exitY=0;entryX=0.7150081471135938;entryY=1;rounded=0;" parent="1" source="LxyOM-RP_s87WLb5cY0l-71" target="LxyOM-RP_s87WLb5cY0l-60" edge="1">
          <mxGeometry relative="1" as="geometry">
            <Array as="points">
              <mxPoint x="404" y="751" />
            </Array>
          </mxGeometry>
        </mxCell>
        <mxCell id="LxyOM-RP_s87WLb5cY0l-84" value="stopSession() / stop &amp; clear session" style="curved=1;startArrow=none;;exitX=0.8990870206957847;exitY=0;entryX=0.9860197368421053;entryY=0.6790653623602066;rounded=0;" parent="1" source="LxyOM-RP_s87WLb5cY0l-60" target="LxyOM-RP_s87WLb5cY0l-58" edge="1">
          <mxGeometry relative="1" as="geometry">
            <Array as="points">
              <mxPoint x="481" y="256" />
              <mxPoint x="481" y="153" />
            </Array>
          </mxGeometry>
        </mxCell>
        <mxCell id="wXV5csDpLWtrcq_JN7xq-1" value="contactLostProtocol() / contact lost, go to paused" style="curved=1;startArrow=none;;exitX=0.5;exitY=1;entryX=0.25;entryY=0;rounded=0;exitDx=0;exitDy=0;entryDx=0;entryDy=0;" parent="1" source="LxyOM-RP_s87WLb5cY0l-60" target="LxyOM-RP_s87WLb5cY0l-71" edge="1">
          <mxGeometry relative="1" as="geometry">
            <Array as="points">
              <mxPoint x="280" y="730" />
            </Array>
            <mxPoint x="358" y="716" as="sourcePoint" />
            <mxPoint x="371" y="785" as="targetPoint" />
          </mxGeometry>
        </mxCell>
      </root>
    </mxGraphModel>
  </diagram>
  <diagram id="PkOHrV7RhaKHQuhL8PJ7" name="Contact Lost Sequence Diagram">
    <mxGraphModel dx="983" dy="809" grid="1" gridSize="10" guides="1" tooltips="1" connect="1" arrows="1" fold="1" page="1" pageScale="1" pageWidth="850" pageHeight="1100" math="0" shadow="0">
      <root>
        <mxCell id="0" />
        <mxCell id="1" parent="0" />
        <mxCell id="xWZptIujarEPzxW43cS3-3" value="aNeureset" style="shape=umlLifeline;perimeter=lifelinePerimeter;whiteSpace=wrap;html=1;container=1;dropTarget=0;collapsible=0;recursiveResize=0;outlineConnect=0;portConstraint=eastwest;newEdgeStyle={&quot;edgeStyle&quot;:&quot;elbowEdgeStyle&quot;,&quot;elbow&quot;:&quot;vertical&quot;,&quot;curved&quot;:0,&quot;rounded&quot;:0};" vertex="1" parent="1">
          <mxGeometry x="120" y="40" width="100" height="460" as="geometry" />
        </mxCell>
        <mxCell id="xWZptIujarEPzxW43cS3-7" value="" style="html=1;points=[];perimeter=orthogonalPerimeter;outlineConnect=0;targetShapes=umlLifeline;portConstraint=eastwest;newEdgeStyle={&quot;edgeStyle&quot;:&quot;elbowEdgeStyle&quot;,&quot;elbow&quot;:&quot;vertical&quot;,&quot;curved&quot;:0,&quot;rounded&quot;:0};" vertex="1" parent="xWZptIujarEPzxW43cS3-3">
          <mxGeometry x="45" y="90" width="10" height="110" as="geometry" />
        </mxCell>
        <mxCell id="xWZptIujarEPzxW43cS3-8" value="contactLostProtocol()" style="html=1;align=left;spacingLeft=2;endArrow=block;rounded=0;edgeStyle=orthogonalEdgeStyle;curved=0;rounded=0;" edge="1" target="xWZptIujarEPzxW43cS3-7" parent="xWZptIujarEPzxW43cS3-3">
          <mxGeometry relative="1" as="geometry">
            <mxPoint x="55" y="70" as="sourcePoint" />
            <Array as="points">
              <mxPoint x="85" y="100" />
            </Array>
          </mxGeometry>
        </mxCell>
        <mxCell id="xWZptIujarEPzxW43cS3-9" value="" style="html=1;points=[];perimeter=orthogonalPerimeter;outlineConnect=0;targetShapes=umlLifeline;portConstraint=eastwest;newEdgeStyle={&quot;edgeStyle&quot;:&quot;elbowEdgeStyle&quot;,&quot;elbow&quot;:&quot;vertical&quot;,&quot;curved&quot;:0,&quot;rounded&quot;:0};" vertex="1" parent="xWZptIujarEPzxW43cS3-3">
          <mxGeometry x="45" y="60" width="10" height="10" as="geometry" />
        </mxCell>
        <mxCell id="xWZptIujarEPzxW43cS3-27" value="" style="endArrow=classic;html=1;rounded=0;" edge="1" parent="xWZptIujarEPzxW43cS3-3" source="xWZptIujarEPzxW43cS3-7" target="xWZptIujarEPzxW43cS3-7">
          <mxGeometry width="50" height="50" relative="1" as="geometry">
            <mxPoint x="60" y="120" as="sourcePoint" />
            <mxPoint x="145" y="120" as="targetPoint" />
          </mxGeometry>
        </mxCell>
        <mxCell id="xWZptIujarEPzxW43cS3-28" value="pauseSession()" style="edgeLabel;html=1;align=center;verticalAlign=middle;resizable=0;points=[];" vertex="1" connectable="0" parent="xWZptIujarEPzxW43cS3-27">
          <mxGeometry x="-0.5333" y="2" relative="1" as="geometry">
            <mxPoint x="41" y="-3" as="offset" />
          </mxGeometry>
        </mxCell>
        <mxCell id="xWZptIujarEPzxW43cS3-15" value="aBlueLight" style="shape=umlLifeline;perimeter=lifelinePerimeter;whiteSpace=wrap;html=1;container=1;dropTarget=0;collapsible=0;recursiveResize=0;outlineConnect=0;portConstraint=eastwest;newEdgeStyle={&quot;edgeStyle&quot;:&quot;elbowEdgeStyle&quot;,&quot;elbow&quot;:&quot;vertical&quot;,&quot;curved&quot;:0,&quot;rounded&quot;:0};" vertex="1" parent="1">
          <mxGeometry x="425" y="40" width="100" height="460" as="geometry" />
        </mxCell>
        <mxCell id="xWZptIujarEPzxW43cS3-4" value="aRedLight" style="shape=umlLifeline;perimeter=lifelinePerimeter;whiteSpace=wrap;html=1;container=1;dropTarget=0;collapsible=0;recursiveResize=0;outlineConnect=0;portConstraint=eastwest;newEdgeStyle={&quot;edgeStyle&quot;:&quot;elbowEdgeStyle&quot;,&quot;elbow&quot;:&quot;vertical&quot;,&quot;curved&quot;:0,&quot;rounded&quot;:0};" vertex="1" parent="1">
          <mxGeometry x="290" y="40" width="100" height="460" as="geometry" />
        </mxCell>
        <mxCell id="xWZptIujarEPzxW43cS3-17" value="" style="html=1;points=[];perimeter=orthogonalPerimeter;outlineConnect=0;targetShapes=umlLifeline;portConstraint=eastwest;newEdgeStyle={&quot;edgeStyle&quot;:&quot;elbowEdgeStyle&quot;,&quot;elbow&quot;:&quot;vertical&quot;,&quot;curved&quot;:0,&quot;rounded&quot;:0};" vertex="1" parent="xWZptIujarEPzxW43cS3-4">
          <mxGeometry x="-125" y="220" width="10" height="20" as="geometry" />
        </mxCell>
        <mxCell id="xWZptIujarEPzxW43cS3-18" value="beepFlash()" style="html=1;align=left;spacingLeft=2;endArrow=block;rounded=0;edgeStyle=orthogonalEdgeStyle;curved=0;rounded=0;" edge="1" target="xWZptIujarEPzxW43cS3-17" parent="xWZptIujarEPzxW43cS3-4">
          <mxGeometry relative="1" as="geometry">
            <mxPoint x="-120" y="200" as="sourcePoint" />
            <Array as="points">
              <mxPoint x="-90" y="230" />
            </Array>
          </mxGeometry>
        </mxCell>
        <mxCell id="xWZptIujarEPzxW43cS3-5" value="" style="html=1;points=[];perimeter=orthogonalPerimeter;outlineConnect=0;targetShapes=umlLifeline;portConstraint=eastwest;newEdgeStyle={&quot;edgeStyle&quot;:&quot;elbowEdgeStyle&quot;,&quot;elbow&quot;:&quot;vertical&quot;,&quot;curved&quot;:0,&quot;rounded&quot;:0};" vertex="1" parent="xWZptIujarEPzxW43cS3-4">
          <mxGeometry x="-125" y="260" width="10" height="100" as="geometry" />
        </mxCell>
        <mxCell id="xWZptIujarEPzxW43cS3-6" value="contactRestablishedProtocol()" style="html=1;align=left;spacingLeft=2;endArrow=block;rounded=0;edgeStyle=orthogonalEdgeStyle;curved=0;rounded=0;" edge="1" target="xWZptIujarEPzxW43cS3-5" parent="xWZptIujarEPzxW43cS3-4">
          <mxGeometry relative="1" as="geometry">
            <mxPoint x="-120" y="240" as="sourcePoint" />
            <Array as="points">
              <mxPoint x="-90" y="270" />
            </Array>
          </mxGeometry>
        </mxCell>
        <mxCell id="xWZptIujarEPzxW43cS3-11" value="" style="html=1;points=[];perimeter=orthogonalPerimeter;outlineConnect=0;targetShapes=umlLifeline;portConstraint=eastwest;newEdgeStyle={&quot;edgeStyle&quot;:&quot;elbowEdgeStyle&quot;,&quot;elbow&quot;:&quot;vertical&quot;,&quot;curved&quot;:0,&quot;rounded&quot;:0};" vertex="1" parent="xWZptIujarEPzxW43cS3-4">
          <mxGeometry x="45" y="160" width="10" height="10" as="geometry" />
        </mxCell>
        <mxCell id="xWZptIujarEPzxW43cS3-25" value="" style="html=1;points=[];perimeter=orthogonalPerimeter;outlineConnect=0;targetShapes=umlLifeline;portConstraint=eastwest;newEdgeStyle={&quot;edgeStyle&quot;:&quot;elbowEdgeStyle&quot;,&quot;elbow&quot;:&quot;vertical&quot;,&quot;curved&quot;:0,&quot;rounded&quot;:0};" vertex="1" parent="xWZptIujarEPzxW43cS3-4">
          <mxGeometry x="45" y="280" width="10" height="10" as="geometry" />
        </mxCell>
        <mxCell id="xWZptIujarEPzxW43cS3-10" value="" style="endArrow=classic;html=1;rounded=0;" edge="1" parent="xWZptIujarEPzxW43cS3-4" target="xWZptIujarEPzxW43cS3-11">
          <mxGeometry width="50" height="50" relative="1" as="geometry">
            <mxPoint x="-115" y="160" as="sourcePoint" />
            <mxPoint x="9.5" y="160" as="targetPoint" />
            <Array as="points">
              <mxPoint x="-60" y="160" />
            </Array>
          </mxGeometry>
        </mxCell>
        <mxCell id="xWZptIujarEPzxW43cS3-12" value="changeLight(&quot;Flashing&quot;)" style="edgeLabel;html=1;align=center;verticalAlign=middle;resizable=0;points=[];" vertex="1" connectable="0" parent="xWZptIujarEPzxW43cS3-10">
          <mxGeometry x="-0.1759" y="2" relative="1" as="geometry">
            <mxPoint x="21" y="-8" as="offset" />
          </mxGeometry>
        </mxCell>
        <mxCell id="xWZptIujarEPzxW43cS3-13" value="" style="endArrow=classic;html=1;rounded=0;" edge="1" parent="xWZptIujarEPzxW43cS3-4">
          <mxGeometry width="50" height="50" relative="1" as="geometry">
            <mxPoint x="-115" y="180" as="sourcePoint" />
            <mxPoint x="184.5" y="180" as="targetPoint" />
            <Array as="points">
              <mxPoint x="-40" y="180" />
            </Array>
          </mxGeometry>
        </mxCell>
        <mxCell id="xWZptIujarEPzxW43cS3-14" value="changeLight(&quot;OFF&quot;)" style="edgeLabel;html=1;align=center;verticalAlign=middle;resizable=0;points=[];" vertex="1" connectable="0" parent="xWZptIujarEPzxW43cS3-13">
          <mxGeometry x="-0.1759" y="2" relative="1" as="geometry">
            <mxPoint x="21" y="-8" as="offset" />
          </mxGeometry>
        </mxCell>
        <mxCell id="xWZptIujarEPzxW43cS3-21" value="" style="endArrow=classic;html=1;rounded=0;" edge="1" parent="xWZptIujarEPzxW43cS3-4" source="xWZptIujarEPzxW43cS3-5" target="xWZptIujarEPzxW43cS3-25">
          <mxGeometry width="50" height="50" relative="1" as="geometry">
            <mxPoint x="-100" y="280" as="sourcePoint" />
            <mxPoint x="40" y="280" as="targetPoint" />
            <Array as="points">
              <mxPoint x="-65" y="280" />
            </Array>
          </mxGeometry>
        </mxCell>
        <mxCell id="xWZptIujarEPzxW43cS3-22" value="changeLight(&quot;Flashing&quot;)" style="edgeLabel;html=1;align=center;verticalAlign=middle;resizable=0;points=[];" vertex="1" connectable="0" parent="xWZptIujarEPzxW43cS3-21">
          <mxGeometry x="-0.1759" y="2" relative="1" as="geometry">
            <mxPoint x="21" y="-8" as="offset" />
          </mxGeometry>
        </mxCell>
        <mxCell id="xWZptIujarEPzxW43cS3-23" value="" style="endArrow=classic;html=1;rounded=0;" edge="1" parent="xWZptIujarEPzxW43cS3-4" source="xWZptIujarEPzxW43cS3-5" target="xWZptIujarEPzxW43cS3-26">
          <mxGeometry width="50" height="50" relative="1" as="geometry">
            <mxPoint x="-109.99666666666675" y="310" as="sourcePoint" />
            <mxPoint x="150" y="310" as="targetPoint" />
            <Array as="points">
              <mxPoint x="-34.83000000000001" y="310" />
            </Array>
          </mxGeometry>
        </mxCell>
        <mxCell id="xWZptIujarEPzxW43cS3-24" value="changeLight(&quot;OFF&quot;)" style="edgeLabel;html=1;align=center;verticalAlign=middle;resizable=0;points=[];" vertex="1" connectable="0" parent="xWZptIujarEPzxW43cS3-23">
          <mxGeometry x="-0.1759" y="2" relative="1" as="geometry">
            <mxPoint x="21" y="-8" as="offset" />
          </mxGeometry>
        </mxCell>
        <mxCell id="xWZptIujarEPzxW43cS3-16" value="" style="html=1;points=[];perimeter=orthogonalPerimeter;outlineConnect=0;targetShapes=umlLifeline;portConstraint=eastwest;newEdgeStyle={&quot;edgeStyle&quot;:&quot;elbowEdgeStyle&quot;,&quot;elbow&quot;:&quot;vertical&quot;,&quot;curved&quot;:0,&quot;rounded&quot;:0};" vertex="1" parent="xWZptIujarEPzxW43cS3-4">
          <mxGeometry x="180" y="180" width="10" height="10" as="geometry" />
        </mxCell>
        <mxCell id="xWZptIujarEPzxW43cS3-26" value="" style="html=1;points=[];perimeter=orthogonalPerimeter;outlineConnect=0;targetShapes=umlLifeline;portConstraint=eastwest;newEdgeStyle={&quot;edgeStyle&quot;:&quot;elbowEdgeStyle&quot;,&quot;elbow&quot;:&quot;vertical&quot;,&quot;curved&quot;:0,&quot;rounded&quot;:0};" vertex="1" parent="xWZptIujarEPzxW43cS3-4">
          <mxGeometry x="180" y="310" width="10" height="10" as="geometry" />
        </mxCell>
        <mxCell id="xWZptIujarEPzxW43cS3-31" value="" style="endArrow=classic;html=1;rounded=0;" edge="1" parent="1" source="xWZptIujarEPzxW43cS3-5" target="xWZptIujarEPzxW43cS3-3">
          <mxGeometry width="50" height="50" relative="1" as="geometry">
            <mxPoint x="210" y="380" as="sourcePoint" />
            <mxPoint x="240" y="400" as="targetPoint" />
            <Array as="points">
              <mxPoint x="200" y="360" />
              <mxPoint x="200" y="380" />
              <mxPoint x="200" y="390" />
            </Array>
          </mxGeometry>
        </mxCell>
        <mxCell id="xWZptIujarEPzxW43cS3-32" value="unpauseSession" style="edgeLabel;html=1;align=center;verticalAlign=middle;resizable=0;points=[];" vertex="1" connectable="0" parent="xWZptIujarEPzxW43cS3-31">
          <mxGeometry x="-0.0763" relative="1" as="geometry">
            <mxPoint x="30" as="offset" />
          </mxGeometry>
        </mxCell>
      </root>
    </mxGraphModel>
  </diagram>
  <diagram id="8mGYPblRECI0aIRfJO84" name="Session Paused Sequence Diagram">
    <mxGraphModel dx="951" dy="783" grid="1" gridSize="10" guides="1" tooltips="1" connect="1" arrows="1" fold="1" page="1" pageScale="1" pageWidth="850" pageHeight="1100" math="0" shadow="0">
      <root>
        <mxCell id="0" />
        <mxCell id="1" parent="0" />
        <mxCell id="T6cut6patiQ-SOyC0crt-1" value="aNeureset" style="shape=umlLifeline;perimeter=lifelinePerimeter;whiteSpace=wrap;html=1;container=1;dropTarget=0;collapsible=0;recursiveResize=0;outlineConnect=0;portConstraint=eastwest;newEdgeStyle={&quot;edgeStyle&quot;:&quot;elbowEdgeStyle&quot;,&quot;elbow&quot;:&quot;vertical&quot;,&quot;curved&quot;:0,&quot;rounded&quot;:0};" vertex="1" parent="1">
          <mxGeometry x="210" y="140" width="100" height="300" as="geometry" />
        </mxCell>
        <mxCell id="T6cut6patiQ-SOyC0crt-29" value="" style="html=1;points=[];perimeter=orthogonalPerimeter;outlineConnect=0;targetShapes=umlLifeline;portConstraint=eastwest;newEdgeStyle={&quot;edgeStyle&quot;:&quot;elbowEdgeStyle&quot;,&quot;elbow&quot;:&quot;vertical&quot;,&quot;curved&quot;:0,&quot;rounded&quot;:0};" vertex="1" parent="T6cut6patiQ-SOyC0crt-1">
          <mxGeometry x="45" y="70" width="10" height="10" as="geometry" />
        </mxCell>
        <mxCell id="AqtK5Y_OXPGxuUbUPe-P-10" value="" style="html=1;points=[];perimeter=orthogonalPerimeter;outlineConnect=0;targetShapes=umlLifeline;portConstraint=eastwest;newEdgeStyle={&quot;edgeStyle&quot;:&quot;elbowEdgeStyle&quot;,&quot;elbow&quot;:&quot;vertical&quot;,&quot;curved&quot;:0,&quot;rounded&quot;:0};" vertex="1" parent="T6cut6patiQ-SOyC0crt-1">
          <mxGeometry x="45" y="200" width="10" height="10" as="geometry" />
        </mxCell>
        <mxCell id="T6cut6patiQ-SOyC0crt-27" value="" style="shape=umlLifeline;perimeter=lifelinePerimeter;whiteSpace=wrap;html=1;container=1;dropTarget=0;collapsible=0;recursiveResize=0;outlineConnect=0;portConstraint=eastwest;newEdgeStyle={&quot;edgeStyle&quot;:&quot;elbowEdgeStyle&quot;,&quot;elbow&quot;:&quot;vertical&quot;,&quot;curved&quot;:0,&quot;rounded&quot;:0};participant=umlActor;" vertex="1" parent="1">
          <mxGeometry x="60" y="140" width="20" height="290" as="geometry" />
        </mxCell>
        <mxCell id="T6cut6patiQ-SOyC0crt-28" value="" style="endArrow=classic;html=1;rounded=0;" edge="1" parent="1" source="T6cut6patiQ-SOyC0crt-27" target="T6cut6patiQ-SOyC0crt-1">
          <mxGeometry width="50" height="50" relative="1" as="geometry">
            <mxPoint x="210" y="250" as="sourcePoint" />
            <mxPoint x="130" y="200" as="targetPoint" />
            <Array as="points">
              <mxPoint x="150" y="210" />
            </Array>
          </mxGeometry>
        </mxCell>
        <mxCell id="T6cut6patiQ-SOyC0crt-30" value="pauseSession()" style="edgeLabel;html=1;align=center;verticalAlign=middle;resizable=0;points=[];" vertex="1" connectable="0" parent="T6cut6patiQ-SOyC0crt-28">
          <mxGeometry x="-0.2647" relative="1" as="geometry">
            <mxPoint x="11" y="-10" as="offset" />
          </mxGeometry>
        </mxCell>
        <mxCell id="AqtK5Y_OXPGxuUbUPe-P-1" value="if else" style="shape=umlFrame;whiteSpace=wrap;html=1;pointerEvents=0;" vertex="1" parent="1">
          <mxGeometry x="20" y="190" width="350" height="260" as="geometry" />
        </mxCell>
        <mxCell id="AqtK5Y_OXPGxuUbUPe-P-2" value="[unpause within 5 minutes]" style="text;html=1;align=center;verticalAlign=middle;resizable=0;points=[];autosize=1;strokeColor=none;fillColor=none;" vertex="1" parent="1">
          <mxGeometry x="20" y="220" width="170" height="30" as="geometry" />
        </mxCell>
        <mxCell id="AqtK5Y_OXPGxuUbUPe-P-4" value="" style="endArrow=none;dashed=1;html=1;dashPattern=1 3;strokeWidth=2;rounded=0;entryX=0.999;entryY=0.36;entryDx=0;entryDy=0;entryPerimeter=0;exitX=-0.008;exitY=0.358;exitDx=0;exitDy=0;exitPerimeter=0;" edge="1" parent="1" source="AqtK5Y_OXPGxuUbUPe-P-1" target="AqtK5Y_OXPGxuUbUPe-P-1">
          <mxGeometry width="50" height="50" relative="1" as="geometry">
            <mxPoint x="110" y="420" as="sourcePoint" />
            <mxPoint x="160" y="370" as="targetPoint" />
          </mxGeometry>
        </mxCell>
        <mxCell id="AqtK5Y_OXPGxuUbUPe-P-5" value="" style="endArrow=classic;html=1;rounded=0;" edge="1" parent="1" source="T6cut6patiQ-SOyC0crt-27" target="T6cut6patiQ-SOyC0crt-1">
          <mxGeometry width="50" height="50" relative="1" as="geometry">
            <mxPoint x="75" y="260" as="sourcePoint" />
            <mxPoint x="230" y="260" as="targetPoint" />
            <Array as="points">
              <mxPoint x="155" y="260" />
            </Array>
          </mxGeometry>
        </mxCell>
        <mxCell id="AqtK5Y_OXPGxuUbUPe-P-6" value="unpauseSession()" style="edgeLabel;html=1;align=center;verticalAlign=middle;resizable=0;points=[];" vertex="1" connectable="0" parent="AqtK5Y_OXPGxuUbUPe-P-5">
          <mxGeometry x="-0.2647" relative="1" as="geometry">
            <mxPoint x="11" y="-10" as="offset" />
          </mxGeometry>
        </mxCell>
        <mxCell id="AqtK5Y_OXPGxuUbUPe-P-7" value="" style="html=1;points=[];perimeter=orthogonalPerimeter;outlineConnect=0;targetShapes=umlLifeline;portConstraint=eastwest;newEdgeStyle={&quot;edgeStyle&quot;:&quot;elbowEdgeStyle&quot;,&quot;elbow&quot;:&quot;vertical&quot;,&quot;curved&quot;:0,&quot;rounded&quot;:0};" vertex="1" parent="1">
          <mxGeometry x="255" y="260" width="10" height="10" as="geometry" />
        </mxCell>
        <mxCell id="AqtK5Y_OXPGxuUbUPe-P-8" value="" style="endArrow=classic;html=1;rounded=0;" edge="1" parent="1">
          <mxGeometry width="50" height="50" relative="1" as="geometry">
            <mxPoint x="70" y="340" as="sourcePoint" />
            <mxPoint x="255" y="340" as="targetPoint" />
            <Array as="points">
              <mxPoint x="145" y="340" />
            </Array>
          </mxGeometry>
        </mxCell>
        <mxCell id="AqtK5Y_OXPGxuUbUPe-P-9" value="pauseSession()" style="edgeLabel;html=1;align=center;verticalAlign=middle;resizable=0;points=[];" vertex="1" connectable="0" parent="AqtK5Y_OXPGxuUbUPe-P-8">
          <mxGeometry x="-0.2647" relative="1" as="geometry">
            <mxPoint x="11" y="-10" as="offset" />
          </mxGeometry>
        </mxCell>
        <mxCell id="AqtK5Y_OXPGxuUbUPe-P-11" value="" style="html=1;points=[];perimeter=orthogonalPerimeter;outlineConnect=0;targetShapes=umlLifeline;portConstraint=eastwest;newEdgeStyle={&quot;edgeStyle&quot;:&quot;elbowEdgeStyle&quot;,&quot;elbow&quot;:&quot;vertical&quot;,&quot;curved&quot;:0,&quot;rounded&quot;:0};" vertex="1" parent="1">
          <mxGeometry x="255" y="400" width="10" height="20" as="geometry" />
        </mxCell>
        <mxCell id="AqtK5Y_OXPGxuUbUPe-P-12" value="stopSession()" style="html=1;align=left;spacingLeft=2;endArrow=block;rounded=0;edgeStyle=orthogonalEdgeStyle;curved=0;rounded=0;" edge="1" target="AqtK5Y_OXPGxuUbUPe-P-11" parent="1">
          <mxGeometry x="0.0011" relative="1" as="geometry">
            <mxPoint x="260" y="380" as="sourcePoint" />
            <Array as="points">
              <mxPoint x="290" y="410" />
            </Array>
            <mxPoint as="offset" />
          </mxGeometry>
        </mxCell>
      </root>
    </mxGraphModel>
  </diagram>
  <diagram id="xrXjVfuPT0ZXeKvsM-NJ" name="Session Log History Case">
    <mxGraphModel dx="797" dy="656" grid="1" gridSize="10" guides="1" tooltips="1" connect="1" arrows="1" fold="1" page="1" pageScale="1" pageWidth="850" pageHeight="1100" math="0" shadow="0">
      <root>
        <mxCell id="0" />
        <mxCell id="1" parent="0" />
        <mxCell id="ZwSPCKualJoQG6zDRPe0-1" value="aNeureset" style="shape=umlLifeline;perimeter=lifelinePerimeter;whiteSpace=wrap;html=1;container=1;dropTarget=0;collapsible=0;recursiveResize=0;outlineConnect=0;portConstraint=eastwest;newEdgeStyle={&quot;edgeStyle&quot;:&quot;elbowEdgeStyle&quot;,&quot;elbow&quot;:&quot;vertical&quot;,&quot;curved&quot;:0,&quot;rounded&quot;:0};" vertex="1" parent="1">
          <mxGeometry x="180" y="140" width="100" height="200" as="geometry" />
        </mxCell>
        <mxCell id="n55l2MHifFoe7yNPY3zx-9" value="" style="html=1;points=[];perimeter=orthogonalPerimeter;outlineConnect=0;targetShapes=umlLifeline;portConstraint=eastwest;newEdgeStyle={&quot;edgeStyle&quot;:&quot;elbowEdgeStyle&quot;,&quot;elbow&quot;:&quot;vertical&quot;,&quot;curved&quot;:0,&quot;rounded&quot;:0};" vertex="1" parent="ZwSPCKualJoQG6zDRPe0-1">
          <mxGeometry x="45" y="105.02" width="10" height="44.98" as="geometry" />
        </mxCell>
        <mxCell id="ZwSPCKualJoQG6zDRPe0-4" value="" style="shape=umlLifeline;perimeter=lifelinePerimeter;whiteSpace=wrap;html=1;container=1;dropTarget=0;collapsible=0;recursiveResize=0;outlineConnect=0;portConstraint=eastwest;newEdgeStyle={&quot;edgeStyle&quot;:&quot;elbowEdgeStyle&quot;,&quot;elbow&quot;:&quot;vertical&quot;,&quot;curved&quot;:0,&quot;rounded&quot;:0};participant=umlActor;" vertex="1" parent="1">
          <mxGeometry x="60" y="140" width="20" height="200" as="geometry" />
        </mxCell>
        <mxCell id="ZwSPCKualJoQG6zDRPe0-17" value="aMainWIndow" style="shape=umlLifeline;perimeter=lifelinePerimeter;whiteSpace=wrap;html=1;container=1;dropTarget=0;collapsible=0;recursiveResize=0;outlineConnect=0;portConstraint=eastwest;newEdgeStyle={&quot;edgeStyle&quot;:&quot;elbowEdgeStyle&quot;,&quot;elbow&quot;:&quot;vertical&quot;,&quot;curved&quot;:0,&quot;rounded&quot;:0};" vertex="1" parent="1">
          <mxGeometry x="390" y="140" width="100" height="210" as="geometry" />
        </mxCell>
        <mxCell id="n55l2MHifFoe7yNPY3zx-6" value="" style="html=1;points=[];perimeter=orthogonalPerimeter;outlineConnect=0;targetShapes=umlLifeline;portConstraint=eastwest;newEdgeStyle={&quot;edgeStyle&quot;:&quot;elbowEdgeStyle&quot;,&quot;elbow&quot;:&quot;vertical&quot;,&quot;curved&quot;:0,&quot;rounded&quot;:0};" vertex="1" parent="ZwSPCKualJoQG6zDRPe0-17">
          <mxGeometry x="45" y="70" width="10" height="10" as="geometry" />
        </mxCell>
        <mxCell id="n55l2MHifFoe7yNPY3zx-7" value="" style="html=1;points=[];perimeter=orthogonalPerimeter;outlineConnect=0;targetShapes=umlLifeline;portConstraint=eastwest;newEdgeStyle={&quot;edgeStyle&quot;:&quot;elbowEdgeStyle&quot;,&quot;elbow&quot;:&quot;vertical&quot;,&quot;curved&quot;:0,&quot;rounded&quot;:0};" vertex="1" parent="ZwSPCKualJoQG6zDRPe0-17">
          <mxGeometry x="45" y="110" width="10" height="50" as="geometry" />
        </mxCell>
        <mxCell id="n55l2MHifFoe7yNPY3zx-8" value="updateSessionLogDisplay()" style="html=1;align=left;spacingLeft=2;endArrow=block;rounded=0;edgeStyle=orthogonalEdgeStyle;curved=0;rounded=0;" edge="1" target="n55l2MHifFoe7yNPY3zx-7" parent="ZwSPCKualJoQG6zDRPe0-17">
          <mxGeometry relative="1" as="geometry">
            <mxPoint x="50" y="80" as="sourcePoint" />
            <Array as="points">
              <mxPoint x="80" y="110" />
            </Array>
          </mxGeometry>
        </mxCell>
        <mxCell id="n55l2MHifFoe7yNPY3zx-1" value="" style="endArrow=classic;html=1;rounded=0;" edge="1" parent="1" target="ZwSPCKualJoQG6zDRPe0-17">
          <mxGeometry width="50" height="50" relative="1" as="geometry">
            <mxPoint x="70" y="210" as="sourcePoint" />
            <mxPoint x="180" y="210" as="targetPoint" />
            <Array as="points">
              <mxPoint x="150" y="210" />
            </Array>
          </mxGeometry>
        </mxCell>
        <mxCell id="n55l2MHifFoe7yNPY3zx-2" value="updateDisplay(MenuOption SessionLog)" style="edgeLabel;html=1;align=center;verticalAlign=middle;resizable=0;points=[];" vertex="1" connectable="0" parent="n55l2MHifFoe7yNPY3zx-1">
          <mxGeometry x="-0.2647" relative="1" as="geometry">
            <mxPoint x="11" y="-10" as="offset" />
          </mxGeometry>
        </mxCell>
        <mxCell id="n55l2MHifFoe7yNPY3zx-10" value="sesionLog()" style="html=1;verticalAlign=bottom;endArrow=block;edgeStyle=elbowEdgeStyle;elbow=vertical;curved=0;rounded=0;" edge="1" target="ZwSPCKualJoQG6zDRPe0-1" parent="1">
          <mxGeometry relative="1" as="geometry">
            <mxPoint x="439.5" y="250.02594594594592" as="sourcePoint" />
            <mxPoint x="260" y="250" as="targetPoint" />
          </mxGeometry>
        </mxCell>
        <mxCell id="n55l2MHifFoe7yNPY3zx-11" value="sessions" style="html=1;verticalAlign=bottom;endArrow=open;dashed=1;endSize=8;edgeStyle=elbowEdgeStyle;elbow=vertical;curved=0;rounded=0;" edge="1" parent="1">
          <mxGeometry relative="1" as="geometry">
            <mxPoint x="439.5" y="284.73324324324324" as="targetPoint" />
            <mxPoint x="240" y="284.73324324324324" as="sourcePoint" />
          </mxGeometry>
        </mxCell>
      </root>
    </mxGraphModel>
  </diagram>
  <diagram id="A2mGWUqYZ2-6Q9AvWmXN" name="DateTime Settings Case">
    <mxGraphModel dx="719" dy="592" grid="1" gridSize="10" guides="1" tooltips="1" connect="1" arrows="1" fold="1" page="1" pageScale="1" pageWidth="850" pageHeight="1100" math="0" shadow="0">
      <root>
        <mxCell id="0" />
        <mxCell id="1" parent="0" />
        <mxCell id="CtEvYvJti7D4WCYbogAM-1" value="aNeureset" style="shape=umlLifeline;perimeter=lifelinePerimeter;whiteSpace=wrap;html=1;container=1;dropTarget=0;collapsible=0;recursiveResize=0;outlineConnect=0;portConstraint=eastwest;newEdgeStyle={&quot;edgeStyle&quot;:&quot;elbowEdgeStyle&quot;,&quot;elbow&quot;:&quot;vertical&quot;,&quot;curved&quot;:0,&quot;rounded&quot;:0};" vertex="1" parent="1">
          <mxGeometry x="180" y="140" width="100" height="200" as="geometry" />
        </mxCell>
        <mxCell id="CtEvYvJti7D4WCYbogAM-3" value="" style="shape=umlLifeline;perimeter=lifelinePerimeter;whiteSpace=wrap;html=1;container=1;dropTarget=0;collapsible=0;recursiveResize=0;outlineConnect=0;portConstraint=eastwest;newEdgeStyle={&quot;edgeStyle&quot;:&quot;elbowEdgeStyle&quot;,&quot;elbow&quot;:&quot;vertical&quot;,&quot;curved&quot;:0,&quot;rounded&quot;:0};participant=umlActor;" vertex="1" parent="1">
          <mxGeometry x="60" y="140" width="20" height="200" as="geometry" />
        </mxCell>
        <mxCell id="CtEvYvJti7D4WCYbogAM-4" value="aMainWIndow" style="shape=umlLifeline;perimeter=lifelinePerimeter;whiteSpace=wrap;html=1;container=1;dropTarget=0;collapsible=0;recursiveResize=0;outlineConnect=0;portConstraint=eastwest;newEdgeStyle={&quot;edgeStyle&quot;:&quot;elbowEdgeStyle&quot;,&quot;elbow&quot;:&quot;vertical&quot;,&quot;curved&quot;:0,&quot;rounded&quot;:0};" vertex="1" parent="1">
          <mxGeometry x="390" y="140" width="100" height="210" as="geometry" />
        </mxCell>
        <mxCell id="CtEvYvJti7D4WCYbogAM-5" value="" style="html=1;points=[];perimeter=orthogonalPerimeter;outlineConnect=0;targetShapes=umlLifeline;portConstraint=eastwest;newEdgeStyle={&quot;edgeStyle&quot;:&quot;elbowEdgeStyle&quot;,&quot;elbow&quot;:&quot;vertical&quot;,&quot;curved&quot;:0,&quot;rounded&quot;:0};" vertex="1" parent="CtEvYvJti7D4WCYbogAM-4">
          <mxGeometry x="45" y="70" width="10" height="10" as="geometry" />
        </mxCell>
        <mxCell id="CtEvYvJti7D4WCYbogAM-6" value="" style="html=1;points=[];perimeter=orthogonalPerimeter;outlineConnect=0;targetShapes=umlLifeline;portConstraint=eastwest;newEdgeStyle={&quot;edgeStyle&quot;:&quot;elbowEdgeStyle&quot;,&quot;elbow&quot;:&quot;vertical&quot;,&quot;curved&quot;:0,&quot;rounded&quot;:0};" vertex="1" parent="CtEvYvJti7D4WCYbogAM-4">
          <mxGeometry x="45" y="110" width="10" height="50" as="geometry" />
        </mxCell>
        <mxCell id="CtEvYvJti7D4WCYbogAM-7" value="updateDateTimeDisplay()" style="html=1;align=left;spacingLeft=2;endArrow=block;rounded=0;edgeStyle=orthogonalEdgeStyle;curved=0;rounded=0;" edge="1" parent="CtEvYvJti7D4WCYbogAM-4" target="CtEvYvJti7D4WCYbogAM-6">
          <mxGeometry relative="1" as="geometry">
            <mxPoint x="50" y="80" as="sourcePoint" />
            <Array as="points">
              <mxPoint x="80" y="110" />
            </Array>
          </mxGeometry>
        </mxCell>
        <mxCell id="CtEvYvJti7D4WCYbogAM-8" value="" style="endArrow=classic;html=1;rounded=0;" edge="1" parent="1" target="CtEvYvJti7D4WCYbogAM-4">
          <mxGeometry width="50" height="50" relative="1" as="geometry">
            <mxPoint x="70" y="210" as="sourcePoint" />
            <mxPoint x="180" y="210" as="targetPoint" />
            <Array as="points">
              <mxPoint x="150" y="210" />
            </Array>
          </mxGeometry>
        </mxCell>
        <mxCell id="CtEvYvJti7D4WCYbogAM-9" value="updateDisplay(MenuOption TimeDate)" style="edgeLabel;html=1;align=center;verticalAlign=middle;resizable=0;points=[];" vertex="1" connectable="0" parent="CtEvYvJti7D4WCYbogAM-8">
          <mxGeometry x="-0.2647" relative="1" as="geometry">
            <mxPoint x="11" y="-10" as="offset" />
          </mxGeometry>
        </mxCell>
      </root>
    </mxGraphModel>
  </diagram>
  <diagram id="AY938nCXQ7msFAM-QKZJ" name="Battery Low Case">
    <mxGraphModel dx="737" dy="607" grid="1" gridSize="10" guides="1" tooltips="1" connect="1" arrows="1" fold="1" page="1" pageScale="1" pageWidth="850" pageHeight="1100" math="0" shadow="0">
      <root>
        <mxCell id="0" />
        <mxCell id="1" parent="0" />
        <mxCell id="Qmbksrlj9mzOQygd_Tzx-27" value="aNeureset" style="shape=umlLifeline;perimeter=lifelinePerimeter;whiteSpace=wrap;html=1;container=1;dropTarget=0;collapsible=0;recursiveResize=0;outlineConnect=0;portConstraint=eastwest;newEdgeStyle={&quot;edgeStyle&quot;:&quot;elbowEdgeStyle&quot;,&quot;elbow&quot;:&quot;vertical&quot;,&quot;curved&quot;:0,&quot;rounded&quot;:0};" vertex="1" parent="1">
          <mxGeometry x="80" y="40" width="100" height="380" as="geometry" />
        </mxCell>
        <mxCell id="1BKuhXCbXcXovMfA7Mj9-1" value="aMainWIndow" style="shape=umlLifeline;perimeter=lifelinePerimeter;whiteSpace=wrap;html=1;container=1;dropTarget=0;collapsible=0;recursiveResize=0;outlineConnect=0;portConstraint=eastwest;newEdgeStyle={&quot;edgeStyle&quot;:&quot;elbowEdgeStyle&quot;,&quot;elbow&quot;:&quot;vertical&quot;,&quot;curved&quot;:0,&quot;rounded&quot;:0};" vertex="1" parent="1">
          <mxGeometry x="230" y="40" width="100" height="380" as="geometry" />
        </mxCell>
        <mxCell id="1BKuhXCbXcXovMfA7Mj9-5" value="" style="html=1;points=[];perimeter=orthogonalPerimeter;outlineConnect=0;targetShapes=umlLifeline;portConstraint=eastwest;newEdgeStyle={&quot;edgeStyle&quot;:&quot;elbowEdgeStyle&quot;,&quot;elbow&quot;:&quot;vertical&quot;,&quot;curved&quot;:0,&quot;rounded&quot;:0};" vertex="1" parent="1BKuhXCbXcXovMfA7Mj9-1">
          <mxGeometry x="45" y="70" width="10" height="20" as="geometry" />
        </mxCell>
        <mxCell id="1BKuhXCbXcXovMfA7Mj9-6" value="emit stop()" style="html=1;verticalAlign=bottom;startArrow=oval;endArrow=block;startSize=8;edgeStyle=elbowEdgeStyle;elbow=vertical;curved=0;rounded=0;" edge="1" target="1BKuhXCbXcXovMfA7Mj9-5" parent="1BKuhXCbXcXovMfA7Mj9-1" source="Qmbksrlj9mzOQygd_Tzx-27">
          <mxGeometry relative="1" as="geometry">
            <mxPoint x="-10" y="70" as="sourcePoint" />
            <Array as="points">
              <mxPoint y="70" />
            </Array>
          </mxGeometry>
        </mxCell>
        <mxCell id="1BKuhXCbXcXovMfA7Mj9-7" value="" style="html=1;points=[];perimeter=orthogonalPerimeter;outlineConnect=0;targetShapes=umlLifeline;portConstraint=eastwest;newEdgeStyle={&quot;edgeStyle&quot;:&quot;elbowEdgeStyle&quot;,&quot;elbow&quot;:&quot;vertical&quot;,&quot;curved&quot;:0,&quot;rounded&quot;:0};" vertex="1" parent="1BKuhXCbXcXovMfA7Mj9-1">
          <mxGeometry x="45" y="110" width="10" height="120" as="geometry" />
        </mxCell>
        <mxCell id="1BKuhXCbXcXovMfA7Mj9-8" value="updateTimer()" style="html=1;align=left;spacingLeft=2;endArrow=block;rounded=0;edgeStyle=orthogonalEdgeStyle;curved=0;rounded=0;" edge="1" target="1BKuhXCbXcXovMfA7Mj9-7" parent="1BKuhXCbXcXovMfA7Mj9-1">
          <mxGeometry relative="1" as="geometry">
            <mxPoint x="50" y="90" as="sourcePoint" />
            <Array as="points">
              <mxPoint x="80" y="120" />
            </Array>
          </mxGeometry>
        </mxCell>
        <mxCell id="1BKuhXCbXcXovMfA7Mj9-11" value="" style="html=1;points=[];perimeter=orthogonalPerimeter;outlineConnect=0;targetShapes=umlLifeline;portConstraint=eastwest;newEdgeStyle={&quot;edgeStyle&quot;:&quot;elbowEdgeStyle&quot;,&quot;elbow&quot;:&quot;vertical&quot;,&quot;curved&quot;:0,&quot;rounded&quot;:0};" vertex="1" parent="1BKuhXCbXcXovMfA7Mj9-1">
          <mxGeometry x="50" y="150" width="10" height="15" as="geometry" />
        </mxCell>
        <mxCell id="1BKuhXCbXcXovMfA7Mj9-12" value="onPowerButtonClicked()" style="html=1;align=left;spacingLeft=2;endArrow=block;rounded=0;edgeStyle=orthogonalEdgeStyle;curved=0;rounded=0;" edge="1" target="1BKuhXCbXcXovMfA7Mj9-11" parent="1BKuhXCbXcXovMfA7Mj9-1" source="1BKuhXCbXcXovMfA7Mj9-7">
          <mxGeometry relative="1" as="geometry">
            <mxPoint x="60" y="130" as="sourcePoint" />
            <Array as="points">
              <mxPoint x="90" y="140" />
              <mxPoint x="90" y="158" />
            </Array>
          </mxGeometry>
        </mxCell>
        <mxCell id="1BKuhXCbXcXovMfA7Mj9-14" value="" style="html=1;points=[];perimeter=orthogonalPerimeter;outlineConnect=0;targetShapes=umlLifeline;portConstraint=eastwest;newEdgeStyle={&quot;edgeStyle&quot;:&quot;elbowEdgeStyle&quot;,&quot;elbow&quot;:&quot;vertical&quot;,&quot;curved&quot;:0,&quot;rounded&quot;:0};" vertex="1" parent="1BKuhXCbXcXovMfA7Mj9-1">
          <mxGeometry x="50" y="175" width="10" height="15" as="geometry" />
        </mxCell>
        <mxCell id="1BKuhXCbXcXovMfA7Mj9-15" value="disabelAll()" style="html=1;align=left;spacingLeft=2;endArrow=block;rounded=0;edgeStyle=orthogonalEdgeStyle;curved=0;rounded=0;" edge="1" parent="1BKuhXCbXcXovMfA7Mj9-1" target="1BKuhXCbXcXovMfA7Mj9-14">
          <mxGeometry relative="1" as="geometry">
            <mxPoint x="55" y="165" as="sourcePoint" />
            <Array as="points">
              <mxPoint x="90" y="165" />
              <mxPoint x="90" y="183" />
            </Array>
          </mxGeometry>
        </mxCell>
        <mxCell id="1BKuhXCbXcXovMfA7Mj9-16" value="" style="html=1;points=[];perimeter=orthogonalPerimeter;outlineConnect=0;targetShapes=umlLifeline;portConstraint=eastwest;newEdgeStyle={&quot;edgeStyle&quot;:&quot;elbowEdgeStyle&quot;,&quot;elbow&quot;:&quot;vertical&quot;,&quot;curved&quot;:0,&quot;rounded&quot;:0};" vertex="1" parent="1BKuhXCbXcXovMfA7Mj9-1">
          <mxGeometry x="50" y="200" width="10" height="15" as="geometry" />
        </mxCell>
        <mxCell id="1BKuhXCbXcXovMfA7Mj9-17" value="disableSafety()" style="html=1;align=left;spacingLeft=2;endArrow=block;rounded=0;edgeStyle=orthogonalEdgeStyle;curved=0;rounded=0;" edge="1" parent="1BKuhXCbXcXovMfA7Mj9-1" target="1BKuhXCbXcXovMfA7Mj9-16">
          <mxGeometry relative="1" as="geometry">
            <mxPoint x="55" y="190" as="sourcePoint" />
            <Array as="points">
              <mxPoint x="90" y="190" />
              <mxPoint x="90" y="208" />
            </Array>
          </mxGeometry>
        </mxCell>
        <mxCell id="1BKuhXCbXcXovMfA7Mj9-21" value="" style="html=1;points=[];perimeter=orthogonalPerimeter;outlineConnect=0;targetShapes=umlLifeline;portConstraint=eastwest;newEdgeStyle={&quot;edgeStyle&quot;:&quot;elbowEdgeStyle&quot;,&quot;elbow&quot;:&quot;vertical&quot;,&quot;curved&quot;:0,&quot;rounded&quot;:0};" vertex="1" parent="1BKuhXCbXcXovMfA7Mj9-1">
          <mxGeometry x="45" y="260" width="10" height="10" as="geometry" />
        </mxCell>
        <mxCell id="1BKuhXCbXcXovMfA7Mj9-26" value="" style="html=1;points=[];perimeter=orthogonalPerimeter;outlineConnect=0;targetShapes=umlLifeline;portConstraint=eastwest;newEdgeStyle={&quot;edgeStyle&quot;:&quot;elbowEdgeStyle&quot;,&quot;elbow&quot;:&quot;vertical&quot;,&quot;curved&quot;:0,&quot;rounded&quot;:0};" vertex="1" parent="1BKuhXCbXcXovMfA7Mj9-1">
          <mxGeometry x="45" y="290" width="10" height="40" as="geometry" />
        </mxCell>
        <mxCell id="1BKuhXCbXcXovMfA7Mj9-27" value="batteryDeadMessage()" style="html=1;align=left;spacingLeft=2;endArrow=block;rounded=0;edgeStyle=orthogonalEdgeStyle;curved=0;rounded=0;" edge="1" target="1BKuhXCbXcXovMfA7Mj9-26" parent="1BKuhXCbXcXovMfA7Mj9-1">
          <mxGeometry relative="1" as="geometry">
            <mxPoint x="50" y="270" as="sourcePoint" />
            <Array as="points">
              <mxPoint x="80" y="300" />
            </Array>
          </mxGeometry>
        </mxCell>
        <mxCell id="1BKuhXCbXcXovMfA7Mj9-28" value="" style="html=1;points=[];perimeter=orthogonalPerimeter;outlineConnect=0;targetShapes=umlLifeline;portConstraint=eastwest;newEdgeStyle={&quot;edgeStyle&quot;:&quot;elbowEdgeStyle&quot;,&quot;elbow&quot;:&quot;vertical&quot;,&quot;curved&quot;:0,&quot;rounded&quot;:0};" vertex="1" parent="1BKuhXCbXcXovMfA7Mj9-1">
          <mxGeometry x="50" y="315" width="10" height="15" as="geometry" />
        </mxCell>
        <mxCell id="1BKuhXCbXcXovMfA7Mj9-29" value="onPowerButtonClicked()" style="html=1;align=left;spacingLeft=2;endArrow=block;rounded=0;edgeStyle=orthogonalEdgeStyle;curved=0;rounded=0;" edge="1" parent="1BKuhXCbXcXovMfA7Mj9-1" target="1BKuhXCbXcXovMfA7Mj9-28">
          <mxGeometry relative="1" as="geometry">
            <mxPoint x="55" y="305" as="sourcePoint" />
            <Array as="points">
              <mxPoint x="90" y="305" />
              <mxPoint x="90" y="323" />
            </Array>
          </mxGeometry>
        </mxCell>
        <mxCell id="1BKuhXCbXcXovMfA7Mj9-19" value="" style="shape=umlLifeline;perimeter=lifelinePerimeter;whiteSpace=wrap;html=1;container=1;dropTarget=0;collapsible=0;recursiveResize=0;outlineConnect=0;portConstraint=eastwest;newEdgeStyle={&quot;edgeStyle&quot;:&quot;elbowEdgeStyle&quot;,&quot;elbow&quot;:&quot;vertical&quot;,&quot;curved&quot;:0,&quot;rounded&quot;:0};participant=umlActor;" vertex="1" parent="1">
          <mxGeometry x="20" y="40" width="20" height="380" as="geometry" />
        </mxCell>
        <mxCell id="1BKuhXCbXcXovMfA7Mj9-20" value="" style="endArrow=classic;html=1;rounded=0;" edge="1" parent="1" source="1BKuhXCbXcXovMfA7Mj9-19" target="1BKuhXCbXcXovMfA7Mj9-21">
          <mxGeometry width="50" height="50" relative="1" as="geometry">
            <mxPoint x="120" y="350" as="sourcePoint" />
            <mxPoint x="220" y="300" as="targetPoint" />
          </mxGeometry>
        </mxCell>
        <mxCell id="1BKuhXCbXcXovMfA7Mj9-22" value="onPowerButtonClicked()" style="edgeLabel;html=1;align=center;verticalAlign=middle;resizable=0;points=[];" vertex="1" connectable="0" parent="1BKuhXCbXcXovMfA7Mj9-20">
          <mxGeometry x="-0.0082" y="1" relative="1" as="geometry">
            <mxPoint y="-9" as="offset" />
          </mxGeometry>
        </mxCell>
      </root>
    </mxGraphModel>
  </diagram>
</mxfile>
